<?xml version="1.0" encoding="utf-8"?>
<!-- Generator: Adobe Illustrator 25.0.0, SVG Export Plug-In . SVG Version: 6.00 Build 0)  -->
<svg version="1.1" id="Layer_1" xmlns="http://www.w3.org/2000/svg" xmlns:xlink="http://www.w3.org/1999/xlink" x="0px" y="0px"
	 viewBox="0 0 653.21 653.21" style="enable-background:new 0 0 653.21 653.21;" xml:space="preserve">
<style type="text/css">
	.st0{clip-path:url(#SVGID_2_);fill-rule:evenodd;clip-rule:evenodd;fill:#472901;}
	.st1{clip-path:url(#SVGID_2_);fill:none;stroke:#472901;stroke-width:0.216;stroke-miterlimit:2.6131;}
	.st2{clip-path:url(#SVGID_2_);fill:#472901;}
	
		.st3{clip-path:url(#SVGID_2_);fill:none;stroke:#472901;stroke-width:0.216;stroke-linecap:round;stroke-linejoin:round;stroke-miterlimit:2.6131;}
</style>
<g>
	<defs>
		<rect id="SVGID_1_" x="-9" y="10.21" width="652" height="652"/>
	</defs>
	<clipPath id="SVGID_2_">
		<use xlink:href="#SVGID_1_"  style="overflow:visible;"/>
	</clipPath>
	<path class="st0" d="M203.12,326.48h5.11v59.71h-5.11c-2.81,0-5.11-2.3-5.11-5.11v-49.49
		C198.01,328.78,200.31,326.48,203.12,326.48"/>
	<path class="st0" d="M191.75,258.06h250.44v4.84c0,1.29-0.05,1.07-0.95,1.84l-31.41,24.04c-2.84,2.18-2.26,1.74-5.86,1.74
		l-171.7-0.14c-4.97-0.01-4.18-0.24-8.32-3.07l-30.06-20.63c-2.6-1.78-2.15-1.08-2.15-4.26V258.06z M404.98,299.39l-175.71,1.47
		c-2.89-0.1-2.78,0.36-2.82,3.38v78.26c0,2.82-0.33,2.64,1.13,5.05l25.94,42.75c0.87,1.43,0.5,1.46,1.82,0.57
		c73.34-49.44,50.54-48.88,126.99-2.62l25.83-42.56v-84.06C408.17,298.62,408.27,299.37,404.98,299.39z M180.65,246.27h272.64v23.33
		c0.25,2.49,0.15,3.23-1.8,4.48l-30.86,22.32c-1.38,1-0.95,1.1-0.95,2.89v89.12c-12.39,20.57-24.77,41.14-37.16,61.7
		c-2.31,3.83-1.41,4.37-4.87,2.27l-4.68-2.83c-2.63-1.59-2.98-0.96-1.53-3.35l0.8-1.31c1.3-2.14,0.94-2.18,0.89-4.69
		c-0.07-3.3,0.55-2.77-2.18-4.43c-62.5-38.06-44.29-38.18-105.78,3.3c-1.37,0.92-1.08,0.6-1.05,2.3l0.1,4.73
		c0.04,2.12,0.37,1.68-1.41,2.76l-6.91,4.18c-1.42,0.97-1.5,0.91-2.33-0.49l-37.34-62c-1.58-2.63-1.28-2.28-1.28-5.36v-83.36
		c0-5.68,0.8-4.44-3.81-7.66l-28.78-20.18c-2.39-1.68-1.71-1.59-1.71-4.65V246.27z"/>
	<path class="st0" d="M430.74,326.48h-5.11v59.71h5.11c2.81,0,5.11-2.3,5.11-5.11v-49.49C435.85,328.78,433.55,326.48,430.74,326.48
		"/>
	<path class="st0" d="M361.69,444.33c0.06-4.88-2.65-8.92-5.89-8.92c-3.24,0-5.89,4.01-5.89,8.92v14.47
		c-38.06,29.83-26.04,29.83-64.09,0v-14.47c0-4.91-2.65-8.92-5.89-8.92c-3.24,0-5.95,4.03-5.89,8.92
		c0.06,4.51-1.39,18.17,1.84,20.71c49.01,38.51,34.64,38.82,83.59,0.3C363.31,462.31,361.62,449.44,361.69,444.33"/>
	<path class="st0" d="M316.9,425.85L316.9,425.85c-3.49,0-6.34,2.85-6.34,6.34v28.07c0,3.49,2.86,6.34,6.34,6.34
		c3.49,0,6.34-2.86,6.34-6.34V432.2C323.25,428.71,320.39,425.85,316.9,425.85"/>
	<path class="st0" d="M366.32,315.47c-4.94,0-4.55-0.11-9.02,1.99l-34.93,16.37v62.73l14.99,9.18c0-13.74,0-27.48,0-41.23
		c0-5.6-1.25-5.42,3.87-5.23l24.79,0.92c7.17,0.26,6.01,1.56,7.69-5.18l4.04-16.19c1.79-7.17,3.54-7.98-2.96-4.81l-11.6,5.65
		c-4.57,2.23-5.24,2.45-10.26,3.22l-12.52,1.9c-5.46,0.83-3.91-3.51-0.54-5.2l42.96-21.48
		C394.87,312.11,372.75,315.47,366.32,315.47 M294.19,344.79l-12.36-1.88c-4.73-0.72-5.45-0.82-9.75-2.92l-13.96-6.81
		c-4.08-1.99-3.06-1.62-1.94,2.87l4.91,19.63c1.39,5.54,0.21,4.78,5.86,4.57l24.81-0.92c6.68-0.25,5.52-1.21,5.52,5.56v40.83
		l14.99-9.18v-57.13c0-7.13,0.49-5.37-6.2-8.51l-28.26-13.25c-4.58-2.15-4.19-2.2-9.25-2.2c-4.06,0-27.21-2.57-18.54,1.77
		l43.58,21.79C297.89,341.17,300.11,345.69,294.19,344.79z"/>
	<path class="st0" d="M316.61,80.64c24.42,0,44.21,22.41,44.21,50.05c0,27.64-19.8,50.05-44.21,50.05
		c-24.42,0-44.21-22.41-44.21-50.05C272.39,103.05,292.19,80.64,316.61,80.64 M99.29,129.11c1.14,17.2,9.33,29.54,18.29,37.18
		c14.87,12.69,24.1,1.82,42.85,0.44l-27.64,10.92c1.93,29.73,17.79,19.58,50.91,17.16c76.21-5.57,187.04-5,263.6-0.09
		c35.03,2.25,51.15,13.11,53.16-17.13l-27.63-10.95c18.52,1.43,27.32,11.98,42.14,0.21c9.62-7.64,17.84-20.43,18.96-37.75
		c-5.95-2.01-16.29-8.3-22.67-11.78c-8-4.36-15.83-7.88-23.79-11.7c-47.45-22.76-117.58-42.68-170.85-42.7
		c-60.59-0.02-140.11,24.88-193.8,53.96C116.37,120.37,105.38,127.02,99.29,129.11z"/>
	<path class="st0" d="M145.62,204.42c-15.7,66.75,97.58,68.64,138.04,69.74c50.58,1.38,151.91,2.84,186.09-24.5
		c11-8.79,27.15-28.33,18.97-42.65c-2.21-3.87-4.31-3.1-9.9-3.52c-8.5-0.64-16.84-1.24-25.33-1.75
		c-33.89-2.04-68.66-2.56-102.66-2.84C283.66,198.35,212.09,197.97,145.62,204.42"/>
	<path class="st0" d="M309.99,137.3l14.18,9.74l1.44,0.04v-3.64l-12.21-8.29L309.99,137.3z M301.01,132.44l-0.02,3.59l17.71-11.76
		l-3.21-1.36L301.01,132.44z M305.51,139.96l9.92,7.02l6.54,0.1l-13.05-9.21L305.51,139.96z M301.01,131.01l12.99-8.76l-3.91-1.39
		l-9.04,6.42L301.01,131.01z M314.44,134.55l11.14,7.35l0.03-4.46l-7.81-5.06L314.44,134.55z M325.56,121.97l0.06-2.55l-13.32-5.28
		l-4.98-0.01L325.56,121.97z M301.52,142.44l5.89,4.64l5.92,0.01l-9-6.4L301.52,142.44z M300.99,122.48l0.02,3.31l7.78-5.51
		l-2.98-1.12L300.99,122.48z M325.61,118.11l0.01-4.03l-10.52,0L325.61,118.11z M319.03,131.67l6.59,4.36l-0.02-3.61l-3.83-2.38
		L319.03,131.67z M301.01,147.07l4.15,0.01l-4.17-3.46L301.01,147.07z M301,120.97l3.48-2.37l-3.49-1.48L301,120.97z M322.76,129.35
		l2.81-1.73v3.46L322.76,129.35z M300.99,114.08l2.92,0.04l21.71,9.11l0,2.42l-24.62-9.82L300.99,114.08z M300.99,137.47l0.01,3.8
		l23.85-14.66l-5.03-1.74L300.99,137.47z M299.85,148.25l26.9,0l0.01-35.33h-26.91L299.85,148.25z"/>
	<path class="st1" d="M309.99,137.3l14.18,9.74l1.44,0.04v-3.64l-12.21-8.29L309.99,137.3z M301.01,132.44l-0.02,3.59l17.71-11.76
		l-3.21-1.36L301.01,132.44z M305.51,139.96l9.92,7.02l6.54,0.1l-13.05-9.21L305.51,139.96z M301.01,131.01l12.99-8.76l-3.91-1.39
		l-9.04,6.42L301.01,131.01z M314.44,134.55l11.14,7.35l0.03-4.46l-7.81-5.06L314.44,134.55z M325.56,121.97l0.06-2.55l-13.32-5.28
		l-4.98-0.01L325.56,121.97z M301.52,142.44l5.89,4.64l5.92,0.01l-9-6.4L301.52,142.44z M300.99,122.48l0.02,3.31l7.78-5.51
		l-2.98-1.12L300.99,122.48z M325.61,118.11l0.01-4.03l-10.52,0L325.61,118.11z M319.03,131.67l6.59,4.36l-0.02-3.61l-3.83-2.38
		L319.03,131.67z M301.01,147.07l4.15,0.01l-4.17-3.46L301.01,147.07z M301,120.97l3.48-2.37l-3.49-1.48L301,120.97z M322.76,129.35
		l2.81-1.73v3.46L322.76,129.35z M300.99,114.08l2.92,0.04l21.71,9.11l0,2.42l-24.62-9.82L300.99,114.08z M300.99,137.47l0.01,3.8
		l23.85-14.66l-5.03-1.74L300.99,137.47z M299.85,148.25l26.9,0l0.01-35.33h-26.91L299.85,148.25z"/>
	<path class="st0" d="M331.2,150.19l-35.78,0.01c0.67,3.23,4.28,2.72,7.66,2.72c6.92,0.16,13.4-0.12,20.3-0.22
		c1.53,0,3.6,0.12,5.06-0.01C329.84,152.55,331,151.54,331.2,150.19z M296.77,153.55c8.75,1.03,32.33,0.39,33.17-0.01
		c0.38-0.31,0.61-0.34,1-0.69c1.02-0.88,1.73-2.3,1.46-3.81l-38.17,0C293.96,151.65,295.29,152.56,296.77,153.55z"/>
	<path class="st1" d="M331.2,150.19l-35.78,0.01c0.67,3.23,4.28,2.72,7.66,2.72c6.92,0.16,13.4-0.12,20.3-0.22
		c1.53,0,3.6,0.12,5.06-0.01C329.84,152.55,331,151.54,331.2,150.19z M296.77,153.55c8.75,1.03,32.33,0.39,33.17-0.01
		c0.38-0.31,0.61-0.34,1-0.69c1.02-0.88,1.73-2.3,1.46-3.81l-38.17,0C293.96,151.65,295.29,152.56,296.77,153.55z"/>
	<path class="st0" d="M295.45,110.95l35.72,0c-0.19-3.32-5.45-2.44-7.67-2.44h-20.3c-1.58,0-3.55-0.11-5.08,0
		C296.85,108.61,295.49,109.76,295.45,110.95z M294.21,112.09l38.27,0.04c-0.21-5.18-3.74-4.83-7.11-4.83h-24.01
		C298.21,107.3,294.22,106.89,294.21,112.09z"/>
	<path class="st1" d="M295.45,110.95l35.72,0c-0.19-3.32-5.45-2.44-7.67-2.44h-20.3c-1.58,0-3.55-0.11-5.08,0
		C296.85,108.61,295.49,109.76,295.45,110.95z M294.21,112.09l38.27,0.04c-0.21-5.18-3.74-4.83-7.11-4.83h-24.01
		C298.21,107.3,294.22,106.89,294.21,112.09z"/>
	<path class="st0" d="M298.36,138.72c-2.39,1.2-4.77,2.37-7.15,3.51l-0.08-0.47l0.56-0.31c0.65-0.37,1.44-0.85,1.9-1.16
		c0.46-0.31,0.59-0.44,0.62-0.51c0.04-0.07-0.02-0.09-0.56,0.14c-0.54,0.23-1.58,0.7-2.53,1.23c-0.95,0.53-1.82,1.12-2.19,1.42
		c-0.38,0.29-0.27,0.29,0,0.2c0.26-0.08,0.68-0.25,1.14-0.46l0.31-0.15l0.08,0.44c-2.46,1.17-4.92,2.32-7.38,3.42
		c-0.2,0.04-0.29-0.11-0.17-0.28c4.99-3.24,10.15-6.39,15.41-9.49L298.36,138.72z"/>
	<path class="st1" d="M298.36,138.72c-2.39,1.2-4.77,2.37-7.15,3.51l-0.08-0.47l0.56-0.31c0.65-0.37,1.44-0.85,1.9-1.16
		c0.46-0.31,0.59-0.44,0.62-0.51c0.04-0.07-0.02-0.09-0.56,0.14c-0.54,0.23-1.58,0.7-2.53,1.23c-0.95,0.53-1.82,1.12-2.19,1.42
		c-0.38,0.29-0.27,0.29,0,0.2c0.26-0.08,0.68-0.25,1.14-0.46l0.31-0.15l0.08,0.44c-2.46,1.17-4.92,2.32-7.38,3.42
		c-0.2,0.04-0.29-0.11-0.17-0.28c4.99-3.24,10.15-6.39,15.41-9.49L298.36,138.72z"/>
	<polygon class="st0" points="327.89,122.34 327.73,120.75 350.37,109.31 350.25,109.52 	"/>
	<polygon class="st1" points="327.89,122.34 327.73,120.75 350.37,109.31 350.25,109.52 	"/>
	<path class="st0" d="M282.83,134.65c0.31,0.3,1.01,0.7,1.4,0.88c0.79,0.36,1.84,0.55,2.7,0.53l0.19,0c0.12,0,0.24-0.01,0.36-0.01
		c0.28,0,0.63-0.03,0.92-0.03c0.07,0,0.13-0.01,0.19,0c0.4,0.01,1-0.02,1.44,0.33c0.46,0.36,0.59,1.06,0.62,1.48
		c0.04,0.44,0.03,0.61,0.03,0.99l-0.02,0.46c-0.01,0.12-0.02,0.24-0.03,0.36c-0.01,0.14-0.01,0.24-0.03,0.37
		c-0.01,0.08-0.05,0.68-0.04,0.73c0.14-0.02,0.28-0.17,0.41-0.19c0.02-0.13,0.02-0.12,0.02-0.24l0.09-1.33
		c0-0.5,0.03-0.76-0.04-1.34c-0.05-0.46-0.19-1.14-0.65-1.56c-0.24-0.22-0.49-0.31-0.74-0.38c-0.19-0.05-0.56-0.09-0.77-0.1
		c-0.49-0.01-1.02,0.02-1.53,0.04l-0.76,0.01c-0.31,0.01-1.01-0.04-1.33-0.09c-0.06-0.01-0.13-0.02-0.19-0.04
		c-0.62-0.12-1.3-0.4-1.87-0.69C283.12,134.8,282.89,134.66,282.83,134.65z"/>
	<path class="st1" d="M282.83,134.65c0.31,0.3,1.01,0.7,1.4,0.88c0.79,0.36,1.84,0.55,2.7,0.53l0.19,0c0.12,0,0.24-0.01,0.36-0.01
		c0.28,0,0.63-0.03,0.92-0.03c0.07,0,0.13-0.01,0.19,0c0.4,0.01,1-0.02,1.44,0.33c0.46,0.36,0.59,1.06,0.62,1.48
		c0.04,0.44,0.03,0.61,0.03,0.99l-0.02,0.46c-0.01,0.12-0.02,0.24-0.03,0.36c-0.01,0.14-0.01,0.24-0.03,0.37
		c-0.01,0.08-0.05,0.68-0.04,0.73c0.14-0.02,0.28-0.17,0.41-0.19c0.02-0.13,0.02-0.12,0.02-0.24l0.09-1.33
		c0-0.5,0.03-0.76-0.04-1.34c-0.05-0.46-0.19-1.14-0.65-1.56c-0.24-0.22-0.49-0.31-0.74-0.38c-0.19-0.05-0.56-0.09-0.77-0.1
		c-0.49-0.01-1.02,0.02-1.53,0.04l-0.76,0.01c-0.31,0.01-1.01-0.04-1.33-0.09c-0.06-0.01-0.13-0.02-0.19-0.04
		c-0.62-0.12-1.3-0.4-1.87-0.69C283.12,134.8,282.89,134.66,282.83,134.65z"/>
	<path class="st0" d="M296.63,144.91c0.03-0.05,0.3-0.3,0.37-0.37c0.11-0.12,0.22-0.24,0.33-0.36c0.43-0.49,0.75-0.94,1.1-1.48
		c0.1-0.15,0.47-0.78,0.42-0.71c-0.02,0.06-0.38,0.55-0.46,0.65c-0.17,0.22-0.33,0.44-0.52,0.65c-0.75,0.88-1.7,1.73-2.74,2.24
		c-0.5,0.25-0.94,0.37-1.41,0.42c-0.96,0.09-1.88-0.43-2.34-1.69c-0.15-0.42-0.29-0.96-0.34-1.4c-0.03-0.24-0.05-0.46-0.07-0.69
		l-0.03-0.78c-0.12,0.09-0.34,0.17-0.41,0.22c0.03,1.04,0.12,3.07,1.35,4.16c0.9,0.8,2.16,0.69,3.11,0.27
		c0.33-0.15,0.66-0.36,0.95-0.57l0.12-0.09c0,0,0.01,0,0.01,0c0,0,0.01,0,0.01,0L296.63,144.91z"/>
	<path class="st1" d="M296.63,144.91c0.03-0.05,0.3-0.3,0.37-0.37c0.11-0.12,0.22-0.24,0.33-0.36c0.43-0.49,0.75-0.94,1.1-1.48
		c0.1-0.15,0.47-0.78,0.42-0.71c-0.02,0.06-0.38,0.55-0.46,0.65c-0.17,0.22-0.33,0.44-0.52,0.65c-0.75,0.88-1.7,1.73-2.74,2.24
		c-0.5,0.25-0.94,0.37-1.41,0.42c-0.96,0.09-1.88-0.43-2.34-1.69c-0.15-0.42-0.29-0.96-0.34-1.4c-0.03-0.24-0.05-0.46-0.07-0.69
		l-0.03-0.78c-0.12,0.09-0.34,0.17-0.41,0.22c0.03,1.04,0.12,3.07,1.35,4.16c0.9,0.8,2.16,0.69,3.11,0.27
		c0.33-0.15,0.66-0.36,0.95-0.57l0.12-0.09c0,0,0.01,0,0.01,0c0,0,0.01,0,0.01,0L296.63,144.91z"/>
	<path class="st2" d="M484.79,518.22l43.02,47.86v-3.36l-40.04-44.5H484.79z M474.14,517.27v-0.36h17.97
		c1.19,1.62,2.72,3.56,4.62,5.84c1.88,2.29,3.56,4.24,5.03,5.88l15.96,17.74c2.1,2.3,3.76,4.09,4.92,5.34
		c1.18,1.26,2.7,2.8,4.58,4.6c0.13-1.64,0.23-3.17,0.28-4.6c0.05-1.42,0.07-2.76,0.07-4.02V532.3c0-5.53-0.27-10.1-0.81-13.71
		l-8.66-1.31v-0.36h21.22v0.36l-8.66,1.39c-0.45,3.33-0.68,7.57-0.68,12.75v39.04h-0.36c-3.64-4.61-7.23-8.92-10.81-12.94
		l-21.79-24.29c-3.23-3.45-5.99-6.19-8.27-8.23c-0.33,3.22-0.5,6.24-0.5,9.05v22.55c0,3.02,0.24,6.61,0.72,10.8l9.05,1.33v0.35
		h-21.64v-0.35l8.77-1.25c0.28-1.7,0.49-4.15,0.6-7.29c0.12-3.16,0.18-5.98,0.18-8.45v-17.45c0-2.07-0.04-4.12-0.11-6.15
		c-0.07-2.03-0.19-4.04-0.39-6.03l-4.74-3.5L474.14,517.27z M459.43,569.07h-26.92v-0.36l8.69-1.3c0.41-2.98,0.71-6.55,0.91-10.75
		c0.21-4.19,0.3-8.29,0.3-12.32v-5.98c0-8.15-0.35-14.76-1.07-19.84l-8.84-1.24v-0.36h26.92v0.36l-8.9,1.24
		c-0.27,2.3-0.45,4.39-0.57,6.25c-0.12,1.86-0.23,4.12-0.32,6.77c-0.1,2.65-0.15,5.13-0.15,7.47v7.87c0,1.46,0.05,3.82,0.16,7.11
		c0.11,3.29,0.26,6.08,0.43,8.35c0.18,2.29,0.35,4,0.52,5.13l8.83,1.24V569.07z M443.39,518.29v49.39h2.48v-49.39H443.39z
		 M389.22,516.4l15.43,36.79c1.99,4.79,4.32,9.56,6.98,14.27l5.91,1.24v0.36h-25.14v-0.36l9.68-1.24c-0.35-2.35-1.01-4.9-1.98-7.67
		c-0.96-2.76-2.02-5.17-3.19-7.21h-22.33c-0.96,2.4-1.73,4.36-2.31,5.91c-0.58,1.54-1.13,3.15-1.67,4.81
		c-0.54,1.65-0.89,3.05-1.06,4.16l9.34,1.24v0.36h-19.92v-0.36l6.57-1.24c1.59-2.75,3.04-5.79,4.36-9.11l16.52-41.96H389.22z
		 M385.42,526.39c-0.63,1.25-1.48,3.1-2.54,5.52c-1.06,2.42-2.02,4.69-2.87,6.81c-0.86,2.1-1.75,4.35-2.67,6.75
		c-0.92,2.38-1.54,3.96-1.86,4.72c1.41,0.19,3.04,0.32,4.9,0.39c1.87,0.07,3.65,0.11,5.34,0.11c4.16,0,7.56-0.17,10.23-0.5
		c-0.9-2.69-2.43-6.5-4.6-11.45C389.18,533.78,387.21,529.66,385.42,526.39z M386.02,523.4l18.47,44.28h2.4l-19.7-47.27
		L386.02,523.4z M300.41,516.91h30.94c1.87,0,3.6-0.05,5.17-0.16c1.57-0.11,3.59-0.28,6.05-0.52l0.81,11.55h-0.43l-2.64-8.4
		c-2.15-0.38-4.41-0.57-6.76-0.57c-2.02,0-3.87,0.11-5.52,0.32c-1.67,0.22-3.47,0.57-5.39,1.07c-0.18,2.21-0.33,4.34-0.43,6.39
		c-0.1,2.05-0.17,3.95-0.22,5.7c-0.04,1.75-0.06,2.94-0.06,3.59v11.82c0,3.11,0.1,6.6,0.32,10.46c0.22,3.87,0.47,6.94,0.78,9.25
		l8.8,1.3v0.36h-26.92v-0.36l8.66-1.3c0.74-5.25,1.11-11.61,1.11-19.06v-12.9c0-2.65-0.06-5.28-0.17-7.87
		c-0.12-2.59-0.33-5.05-0.61-7.38c-1.39-0.38-2.98-0.68-4.81-0.9c-1.82-0.23-3.56-0.36-5.19-0.41c-2.59,0-5.14,0.22-7.66,0.64
		l-2.57,8.47h-0.5l0.78-11.7c0.72,0.05,1.75,0.16,3.1,0.34C298.42,516.82,299.54,516.91,300.41,516.91z M315.8,518.22v49.46h2.41
		v-49.46H315.8z M258.65,517.64h-1.29v0.35c2.69,0.15,5.03,0.91,7.04,2.3c2.01,1.39,3.53,3.19,4.55,5.4
		c1.02,2.2,1.53,4.58,1.53,7.12c0,2.89-0.62,5.29-1.85,7.19c-1.24,1.9-2.71,3.28-4.43,4.13c-1.71,0.85-3.42,1.36-5.09,1.53v0.43
		h0.63c1.34,0,3.03-0.36,5.08-1.08c2.05-0.73,3.94-2.13,5.64-4.18c1.71-2.07,2.57-4.94,2.57-8.58c0-2.26-0.46-4.51-1.39-6.77
		c-0.92-2.25-2.48-4.12-4.66-5.61C264.82,518.38,262.04,517.64,258.65,517.64z M244.36,518.15v49.46h2.48v-49.46H244.36z
		 M233.49,516.76h24.72c3.98,0,7.06,0.36,9.3,1.08c2.24,0.73,4.07,1.81,5.52,3.27c1.22,1.2,2.14,2.7,2.8,4.47
		c0.66,1.76,0.98,3.59,0.98,5.47c0,2.8-0.73,5.4-2.2,7.78c-1.46,2.4-3.51,4.3-6.16,5.75c-2.64,1.43-5.67,2.15-9.07,2.15
		c-2.67,0-5.12-0.22-7.29-0.66v-0.36c0.5,0.05,1.25,0.07,2.27,0.07c2.66,0,5.13-0.46,7.4-1.37c2.27-0.91,4.1-2.33,5.47-4.27
		c1.39-1.93,2.07-4.36,2.07-7.28c0-3.39-1.06-6.59-3.17-9.58c-2.12-2.99-5.24-4.49-9.37-4.49c-1.99,0-3.77,0.19-5.31,0.57
		c-0.16,0.95-0.34,3.31-0.54,7.09c-0.19,3.77-0.28,6.42-0.28,7.94v17c0,0.71,0.05,2.32,0.16,4.83c0.11,2.5,0.22,4.67,0.34,6.5
		c0.12,1.82,0.29,3.36,0.53,4.58l8.91,1.33l-0.39,0.43h-26.69l0.15-0.5l8.62-1.25c0.27-1.99,0.46-4.11,0.61-6.33
		c0.15-2.24,0.27-4.92,0.38-8.07c0.1-3.15,0.16-5.5,0.16-7.04v-8.55c0-3.02-0.1-6.39-0.29-10.14c-0.18-3.75-0.43-6.65-0.71-8.74
		l-8.84-1.25L233.49,516.76z M190.19,516.4l15.43,36.79c1.99,4.79,4.32,9.56,6.98,14.27l5.91,1.24v0.36h-25.14v-0.36l9.68-1.24
		c-0.35-2.35-1.01-4.9-1.98-7.67c-0.96-2.76-2.02-5.17-3.19-7.21h-22.33c-0.96,2.4-1.73,4.36-2.31,5.91
		c-0.58,1.54-1.13,3.15-1.67,4.81c-0.54,1.65-0.89,3.05-1.06,4.16l9.34,1.24v0.36h-19.92v-0.36l6.57-1.24
		c1.59-2.75,3.04-5.79,4.36-9.11l16.52-41.96H190.19z M186.4,526.39c-0.63,1.25-1.48,3.1-2.54,5.52c-1.06,2.42-2.02,4.69-2.87,6.81
		c-0.86,2.1-1.75,4.35-2.67,6.75c-0.92,2.38-1.54,3.96-1.86,4.72c1.41,0.19,3.04,0.32,4.9,0.39c1.87,0.07,3.65,0.11,5.34,0.11
		c4.16,0,7.56-0.17,10.23-0.5c-0.9-2.69-2.43-6.5-4.6-11.45C190.16,533.78,188.19,529.66,186.4,526.39z M187,523.4l18.47,44.28h2.4
		l-19.7-47.27L187,523.4z M143.14,559.44l-5.28,9.78c-2.29-0.2-3.93-0.29-4.95-0.29c-1.26,0-2.95,0.1-5.09,0.29
		c-2.14,0.19-3.81,0.29-4.99,0.29c-4.8,0-9.05-0.74-12.74-2.22c-3.68-1.48-6.74-3.49-9.13-6.02c-2.4-2.53-4.17-5.33-5.34-8.38
		c-1.15-3.05-1.74-6.14-1.74-9.28c0-4.01,0.68-7.71,2.04-11.1c1.36-3.38,3.29-6.29,5.79-8.72c2.48-2.44,5.4-4.3,8.72-5.59
		c3.33-1.3,6.89-1.95,10.72-1.95c1,0,1.63,0,1.88,0.01c0.27,0.01,0.84,0.04,1.71,0.07c0.88,0.04,1.76,0.09,2.67,0.13
		c3.2,0.19,5.65,0.29,7.37,0.29c3.79,0,6.29-0.1,7.44-0.29l0.43,11.95h-0.43l-2.38-7.94c-0.72-0.17-1.97-0.41-3.78-0.72
		c-1.8-0.3-3.56-0.56-5.29-0.75c-1.71-0.18-3.51-0.28-5.39-0.28c-4.9,0-9.08,0.99-12.56,2.94c-3.48,1.96-6.1,4.73-7.85,8.33
		c-1.76,3.6-2.64,7.73-2.64,12.41c0,3.62,0.63,6.97,1.88,10.02c1.26,3.05,3.02,5.65,5.28,7.81c2.25,2.14,4.83,3.78,7.71,4.89
		c2.88,1.12,5.93,1.68,9.14,1.68c3.17,0,6.15-0.53,8.94-1.62c2.78-1.08,5.26-3.05,7.44-5.9L143.14,559.44z M127,517.05h-4.17
		c-4.13,0-7.93,0.68-11.38,2.04c-3.45,1.37-6.37,3.27-8.77,5.7c-2.38,2.43-4.19,5.24-5.42,8.43c-1.23,3.19-1.85,6.59-1.85,10.23
		c0,3.32,0.63,6.49,1.9,9.52c1.28,3.03,3.15,5.73,5.63,8.09c2.48,2.37,5.45,4.21,8.89,5.52c3.44,1.33,7.3,1.98,11.54,1.98
		c1.9,0,3.11-0.02,3.64-0.07v-0.44c-4.73,0.1-8.94-0.52-12.63-1.87c-3.68-1.34-6.74-3.22-9.13-5.63c-2.4-2.41-4.18-5.13-5.36-8.17
		c-1.18-3.04-1.76-6.13-1.76-9.26c0-3.09,0.51-6.13,1.53-9.12c1.02-2.99,2.59-5.74,4.72-8.23c2.13-2.49,4.88-4.49,8.24-5.97
		c3.38-1.48,7.34-2.22,11.9-2.22H127V517.05z"/>
	<path class="st3" d="M484.79,518.22l43.02,47.86v-3.36l-40.04-44.5H484.79z M474.14,517.27v-0.36h17.97
		c1.19,1.62,2.72,3.56,4.62,5.84c1.88,2.29,3.56,4.24,5.03,5.88l15.96,17.74c2.1,2.3,3.76,4.09,4.92,5.34
		c1.18,1.26,2.7,2.8,4.58,4.6c0.13-1.64,0.23-3.17,0.28-4.6c0.05-1.42,0.07-2.76,0.07-4.02V532.3c0-5.53-0.27-10.1-0.81-13.71
		l-8.66-1.31v-0.36h21.22v0.36l-8.66,1.39c-0.45,3.33-0.68,7.57-0.68,12.75v39.04h-0.36c-3.64-4.61-7.23-8.92-10.81-12.94
		l-21.79-24.29c-3.23-3.45-5.99-6.19-8.27-8.23c-0.33,3.22-0.5,6.24-0.5,9.05v22.55c0,3.02,0.24,6.61,0.72,10.8l9.05,1.33v0.35
		h-21.64v-0.35l8.77-1.25c0.28-1.7,0.49-4.15,0.6-7.29c0.12-3.16,0.18-5.98,0.18-8.45v-17.45c0-2.07-0.04-4.12-0.11-6.15
		c-0.07-2.03-0.19-4.04-0.39-6.03l-4.74-3.5L474.14,517.27z M459.43,569.07h-26.92v-0.36l8.69-1.3c0.41-2.98,0.71-6.55,0.91-10.75
		c0.21-4.19,0.3-8.29,0.3-12.32v-5.98c0-8.15-0.35-14.76-1.07-19.84l-8.84-1.24v-0.36h26.92v0.36l-8.9,1.24
		c-0.27,2.3-0.45,4.39-0.57,6.25c-0.12,1.86-0.23,4.12-0.32,6.77c-0.1,2.65-0.15,5.13-0.15,7.47v7.87c0,1.46,0.05,3.82,0.16,7.11
		c0.11,3.29,0.26,6.08,0.43,8.35c0.18,2.29,0.35,4,0.52,5.13l8.83,1.24V569.07z M443.39,518.29v49.39h2.48v-49.39H443.39z
		 M389.22,516.4l15.43,36.79c1.99,4.79,4.32,9.56,6.98,14.27l5.91,1.24v0.36h-25.14v-0.36l9.68-1.24c-0.35-2.35-1.01-4.9-1.98-7.67
		c-0.96-2.76-2.02-5.17-3.19-7.21h-22.33c-0.96,2.4-1.73,4.36-2.31,5.91c-0.58,1.54-1.13,3.15-1.67,4.81
		c-0.54,1.65-0.89,3.05-1.06,4.16l9.34,1.24v0.36h-19.92v-0.36l6.57-1.24c1.59-2.75,3.04-5.79,4.36-9.11l16.52-41.96H389.22z
		 M385.42,526.39c-0.63,1.25-1.48,3.1-2.54,5.52c-1.06,2.42-2.02,4.69-2.87,6.81c-0.86,2.1-1.75,4.35-2.67,6.75
		c-0.92,2.38-1.54,3.96-1.86,4.72c1.41,0.19,3.04,0.32,4.9,0.39c1.87,0.07,3.65,0.11,5.34,0.11c4.16,0,7.56-0.17,10.23-0.5
		c-0.9-2.69-2.43-6.5-4.6-11.45C389.18,533.78,387.21,529.66,385.42,526.39z M386.02,523.4l18.47,44.28h2.4l-19.7-47.27
		L386.02,523.4z M300.41,516.91h30.94c1.87,0,3.6-0.05,5.17-0.16c1.57-0.11,3.59-0.28,6.05-0.52l0.81,11.55h-0.43l-2.64-8.4
		c-2.15-0.38-4.41-0.57-6.76-0.57c-2.02,0-3.87,0.11-5.52,0.32c-1.67,0.22-3.47,0.57-5.39,1.07c-0.18,2.21-0.33,4.34-0.43,6.39
		c-0.1,2.05-0.17,3.95-0.22,5.7c-0.04,1.75-0.06,2.94-0.06,3.59v11.82c0,3.11,0.1,6.6,0.32,10.46c0.22,3.87,0.47,6.94,0.78,9.25
		l8.8,1.3v0.36h-26.92v-0.36l8.66-1.3c0.74-5.25,1.11-11.61,1.11-19.06v-12.9c0-2.65-0.06-5.28-0.17-7.87
		c-0.12-2.59-0.33-5.05-0.61-7.38c-1.39-0.38-2.98-0.68-4.81-0.9c-1.82-0.23-3.56-0.36-5.19-0.41c-2.59,0-5.14,0.22-7.66,0.64
		l-2.57,8.47h-0.5l0.78-11.7c0.72,0.05,1.75,0.16,3.1,0.34C298.42,516.82,299.54,516.91,300.41,516.91z M315.8,518.22v49.46h2.41
		v-49.46H315.8z M258.65,517.64h-1.29v0.35c2.69,0.15,5.03,0.91,7.04,2.3c2.01,1.39,3.53,3.19,4.55,5.4
		c1.02,2.2,1.53,4.58,1.53,7.12c0,2.89-0.62,5.29-1.85,7.19c-1.24,1.9-2.71,3.28-4.43,4.13c-1.71,0.85-3.42,1.36-5.09,1.53v0.43
		h0.63c1.34,0,3.03-0.36,5.08-1.08c2.05-0.73,3.94-2.13,5.64-4.18c1.71-2.07,2.57-4.94,2.57-8.58c0-2.26-0.46-4.51-1.39-6.77
		c-0.92-2.25-2.48-4.12-4.66-5.61C264.82,518.38,262.04,517.64,258.65,517.64z M244.36,518.15v49.46h2.48v-49.46H244.36z
		 M233.49,516.76h24.72c3.98,0,7.06,0.36,9.3,1.08c2.24,0.73,4.07,1.81,5.52,3.27c1.22,1.2,2.14,2.7,2.8,4.47
		c0.66,1.76,0.98,3.59,0.98,5.47c0,2.8-0.73,5.4-2.2,7.78c-1.46,2.4-3.51,4.3-6.16,5.75c-2.64,1.43-5.67,2.15-9.07,2.15
		c-2.67,0-5.12-0.22-7.29-0.66v-0.36c0.5,0.05,1.25,0.07,2.27,0.07c2.66,0,5.13-0.46,7.4-1.37c2.27-0.91,4.1-2.33,5.47-4.27
		c1.39-1.93,2.07-4.36,2.07-7.28c0-3.39-1.06-6.59-3.17-9.58c-2.12-2.99-5.24-4.49-9.37-4.49c-1.99,0-3.77,0.19-5.31,0.57
		c-0.16,0.95-0.34,3.31-0.54,7.09c-0.19,3.77-0.28,6.42-0.28,7.94v17c0,0.71,0.05,2.32,0.16,4.83c0.11,2.5,0.22,4.67,0.34,6.5
		c0.12,1.82,0.29,3.36,0.53,4.58l8.91,1.33l-0.39,0.43h-26.69l0.15-0.5l8.62-1.25c0.27-1.99,0.46-4.11,0.61-6.33
		c0.15-2.24,0.27-4.92,0.38-8.07c0.1-3.15,0.16-5.5,0.16-7.04v-8.55c0-3.02-0.1-6.39-0.29-10.14c-0.18-3.75-0.43-6.65-0.71-8.74
		l-8.84-1.25L233.49,516.76z M190.19,516.4l15.43,36.79c1.99,4.79,4.32,9.56,6.98,14.27l5.91,1.24v0.36h-25.14v-0.36l9.68-1.24
		c-0.35-2.35-1.01-4.9-1.98-7.67c-0.96-2.76-2.02-5.17-3.19-7.21h-22.33c-0.96,2.4-1.73,4.36-2.31,5.91
		c-0.58,1.54-1.13,3.15-1.67,4.81c-0.54,1.65-0.89,3.05-1.06,4.16l9.34,1.24v0.36h-19.92v-0.36l6.57-1.24
		c1.59-2.75,3.04-5.79,4.36-9.11l16.52-41.96H190.19z M186.4,526.39c-0.63,1.25-1.48,3.1-2.54,5.52c-1.06,2.42-2.02,4.69-2.87,6.81
		c-0.86,2.1-1.75,4.35-2.67,6.75c-0.92,2.38-1.54,3.96-1.86,4.72c1.41,0.19,3.04,0.32,4.9,0.39c1.87,0.07,3.65,0.11,5.34,0.11
		c4.16,0,7.56-0.17,10.23-0.5c-0.9-2.69-2.43-6.5-4.6-11.45C190.16,533.78,188.19,529.66,186.4,526.39z M187,523.4l18.47,44.28h2.4
		l-19.7-47.27L187,523.4z M143.14,559.44l-5.28,9.78c-2.29-0.2-3.93-0.29-4.95-0.29c-1.26,0-2.95,0.1-5.09,0.29
		c-2.14,0.19-3.81,0.29-4.99,0.29c-4.8,0-9.05-0.74-12.74-2.22c-3.68-1.48-6.74-3.49-9.13-6.02c-2.4-2.53-4.17-5.33-5.34-8.38
		c-1.15-3.05-1.74-6.14-1.74-9.28c0-4.01,0.68-7.71,2.04-11.1c1.36-3.38,3.29-6.29,5.79-8.72c2.48-2.44,5.4-4.3,8.72-5.59
		c3.33-1.3,6.89-1.95,10.72-1.95c1,0,1.63,0,1.88,0.01c0.27,0.01,0.84,0.04,1.71,0.07c0.88,0.04,1.76,0.09,2.67,0.13
		c3.2,0.19,5.65,0.29,7.37,0.29c3.79,0,6.29-0.1,7.44-0.29l0.43,11.95h-0.43l-2.38-7.94c-0.72-0.17-1.97-0.41-3.78-0.72
		c-1.8-0.3-3.56-0.56-5.29-0.75c-1.71-0.18-3.51-0.28-5.39-0.28c-4.9,0-9.08,0.99-12.56,2.94c-3.48,1.96-6.1,4.73-7.85,8.33
		c-1.76,3.6-2.64,7.73-2.64,12.41c0,3.62,0.63,6.97,1.88,10.02c1.26,3.05,3.02,5.65,5.28,7.81c2.25,2.14,4.83,3.78,7.71,4.89
		c2.88,1.12,5.93,1.68,9.14,1.68c3.17,0,6.15-0.53,8.94-1.62c2.78-1.08,5.26-3.05,7.44-5.9L143.14,559.44z M127,517.05h-4.17
		c-4.13,0-7.93,0.68-11.38,2.04c-3.45,1.37-6.37,3.27-8.77,5.7c-2.38,2.43-4.19,5.24-5.42,8.43c-1.23,3.19-1.85,6.59-1.85,10.23
		c0,3.32,0.63,6.49,1.9,9.52c1.28,3.03,3.15,5.73,5.63,8.09c2.48,2.37,5.45,4.21,8.89,5.52c3.44,1.33,7.3,1.98,11.54,1.98
		c1.9,0,3.11-0.02,3.64-0.07v-0.44c-4.73,0.1-8.94-0.52-12.63-1.87c-3.68-1.34-6.74-3.22-9.13-5.63c-2.4-2.41-4.18-5.13-5.36-8.17
		c-1.18-3.04-1.76-6.13-1.76-9.26c0-3.09,0.51-6.13,1.53-9.12c1.02-2.99,2.59-5.74,4.72-8.23c2.13-2.49,4.88-4.49,8.24-5.97
		c3.38-1.48,7.34-2.22,11.9-2.22H127V517.05z"/>
	<path class="st2" d="M485.49,610.29c-2.1,0-4.12-0.28-6.05-0.85c-1.93-0.56-3.48-1.3-4.66-2.2l2.07-4.59c1.13,0.8,2.46,1.46,4,1.97
		c1.54,0.51,3.1,0.77,4.68,0.77c1.2,0,2.17-0.12,2.91-0.36c0.74-0.24,1.28-0.57,1.64-1c0.35-0.43,0.53-0.91,0.53-1.47
		c0-0.7-0.28-1.26-0.83-1.67c-0.55-0.41-1.28-0.75-2.18-1.01c-0.9-0.26-1.9-0.51-2.99-0.75c-1.09-0.24-2.18-0.53-3.27-0.88
		c-1.09-0.35-2.09-0.8-2.99-1.35c-0.9-0.55-1.63-1.28-2.2-2.18c-0.56-0.9-0.85-2.05-0.85-3.46c0-1.5,0.41-2.88,1.22-4.12
		c0.81-1.24,2.04-2.23,3.68-2.97c1.64-0.74,3.7-1.11,6.18-1.11c1.65,0,3.28,0.19,4.89,0.58c1.6,0.39,3.02,0.97,4.25,1.75l-1.88,4.62
		c-1.23-0.7-2.46-1.22-3.68-1.56c-1.23-0.34-2.43-0.51-3.61-0.51s-2.14,0.14-2.89,0.41c-0.75,0.28-1.29,0.63-1.62,1.07
		c-0.33,0.44-0.49,0.95-0.49,1.52c0,0.68,0.28,1.22,0.83,1.64c0.55,0.41,1.28,0.75,2.18,1c0.9,0.25,1.9,0.5,2.99,0.75
		c1.09,0.25,2.18,0.54,3.27,0.86s2.09,0.76,2.99,1.32c0.9,0.55,1.64,1.28,2.2,2.18c0.56,0.9,0.85,2.04,0.85,3.42
		c0,1.48-0.41,2.83-1.24,4.06c-0.83,1.23-2.06,2.22-3.7,2.97C490.07,609.92,488,610.29,485.49,610.29 M432.96,604.96h14.32v4.89
		H426.9v-26.31h19.89v4.89h-13.83V604.96z M432.5,594.13h12.67v4.74H432.5V594.13z M390.3,599.05h-12.86v-5.15h12.86V599.05z
		 M377.9,609.84h-6.09v-26.31h6.09V609.84z M389.85,583.53h6.09v26.31h-6.09V583.53z M332.13,610.29c-2.03,0-3.92-0.33-5.66-1
		c-1.74-0.66-3.25-1.61-4.53-2.84c-1.28-1.23-2.27-2.67-2.99-4.32c-0.71-1.65-1.07-3.47-1.07-5.45c0-1.98,0.36-3.8,1.07-5.45
		c0.71-1.65,1.72-3.1,3.01-4.32c1.29-1.23,2.8-2.17,4.53-2.84c1.73-0.66,3.62-1,5.68-1c2.28,0,4.34,0.39,6.18,1.18
		c1.84,0.79,3.39,1.95,4.64,3.48l-3.91,3.61c-0.9-1.03-1.9-1.8-3.01-2.31c-1.1-0.51-2.31-0.77-3.61-0.77c-1.23,0-2.36,0.2-3.38,0.6
		c-1.03,0.4-1.92,0.98-2.67,1.73c-0.75,0.75-1.33,1.64-1.75,2.67c-0.41,1.03-0.62,2.17-0.62,3.42c0,1.25,0.21,2.39,0.62,3.42
		c0.41,1.03,1,1.92,1.75,2.67c0.75,0.75,1.64,1.33,2.67,1.73c1.03,0.4,2.16,0.6,3.38,0.6c1.3,0,2.51-0.26,3.61-0.77
		c1.1-0.51,2.1-1.3,3.01-2.35l3.91,3.61c-1.25,1.53-2.8,2.69-4.64,3.5C336.5,609.89,334.43,610.29,332.13,610.29z M277.41,609.84
		v-21.35h-8.42v-4.96h22.93v4.96h-8.42v21.35H277.41z M234.9,609.84v-26.31h6.09v26.31H234.9z M192.4,609.84v-21.35h-8.42v-4.96
		h22.93v4.96h-8.42v21.35H192.4z M147.27,610.29c-2.1,0-4.12-0.28-6.05-0.85c-1.93-0.56-3.48-1.3-4.66-2.2l2.07-4.59
		c1.13,0.8,2.46,1.46,4,1.97c1.54,0.51,3.1,0.77,4.68,0.77c1.2,0,2.17-0.12,2.91-0.36c0.74-0.24,1.28-0.57,1.64-1
		c0.35-0.43,0.53-0.91,0.53-1.47c0-0.7-0.28-1.26-0.83-1.67c-0.55-0.41-1.28-0.75-2.18-1.01c-0.9-0.26-1.9-0.51-2.99-0.75
		c-1.09-0.24-2.18-0.53-3.27-0.88c-1.09-0.35-2.09-0.8-2.99-1.35c-0.9-0.55-1.64-1.28-2.2-2.18c-0.56-0.9-0.85-2.05-0.85-3.46
		c0-1.5,0.41-2.88,1.22-4.12c0.81-1.24,2.04-2.23,3.68-2.97c1.64-0.74,3.7-1.11,6.18-1.11c1.65,0,3.28,0.19,4.89,0.58
		c1.6,0.39,3.02,0.97,4.25,1.75l-1.88,4.62c-1.23-0.7-2.46-1.22-3.68-1.56c-1.23-0.34-2.43-0.51-3.61-0.51
		c-1.18,0-2.14,0.14-2.89,0.41c-0.75,0.28-1.29,0.63-1.62,1.07c-0.33,0.44-0.49,0.95-0.49,1.52c0,0.68,0.28,1.22,0.83,1.64
		c0.55,0.41,1.28,0.75,2.18,1c0.9,0.25,1.9,0.5,2.99,0.75c1.09,0.25,2.18,0.54,3.27,0.86s2.09,0.76,2.99,1.32
		c0.9,0.55,1.64,1.28,2.2,2.18c0.56,0.9,0.85,2.04,0.85,3.42c0,1.48-0.41,2.83-1.24,4.06c-0.83,1.23-2.06,2.22-3.7,2.97
		C151.85,609.92,149.77,610.29,147.27,610.29z"/>
</g>
</svg>
